<svg xmlns="http://www.w3.org/2000/svg"  viewBox="0 0 48 48" width="48px" height="48px"><path fill="#fcbf95" d="M18.418,36.84c0,0-2.753-0.335-2.657,2.202s3.122,2.585,4.021,2.585 c0.782,0,2.274-0.766,2.274-0.766s-0.838,4.691,3.973,5.697c4.811,1.005,7.851-3.16,7.851-3.16s3.842-5.518-1.633-6.086 l0.126-10.765c0,0-0.981-3.375-2.872-1.795c-1.891,1.58-3.614,3.112-9.479,1.484s-1.029,8.593-1.029,8.593l1.556,2.872 l0.144,1.029L18.418,36.84z"/><ellipse cx="25.048" cy="37.044" fill="#d6e5e5" rx="2.418" ry="2.358"/><ellipse cx="30.565" cy="35.416" fill="#d6e5e5" rx="1.185" ry="2.238"/><path fill="#c56528" d="M21.266,39.298l-7.66-6.096c0,0-3.926-3.096-1.468-8.234s3.191-6.989,3.191-6.989l0.16-6.606 c0,0-0.574-6.191,3.543-8.426s9.172,0.559,9.086,3.503c0,0-4.139-1.173-4.618,3.008c0,0-0.16,2.553,3.989,5.011 s3.894,6.351,3.894,6.351l-0.191,1.053c0,0,1.277,0.926,0.862,3.064l-1.915-0.734c0,0-2.649,3.255-7.628,2.649 c0,0-4.213-1.979-5.266,0.894c-1.053,2.872,1.947,7.181,1.947,7.181S21.138,38.181,21.266,39.298z"/><path fill="#010101" d="M23.36,29.629c-0.344-0.145-0.693-0.107-1.029,0.043c-0.493,0.22-0.906,0.649-1.195,1.096 c-0.327,0.504-0.504,1.103-0.516,1.703c-0.005,0.262,0.234,0.512,0.5,0.5c0.179-0.008,0.326-0.103,0.414-0.242 c0.099-0.039,0.19-0.103,0.256-0.203c0.017-0.026,0.036-0.052,0.054-0.078c0.003-0.003,0.001-0.001,0.004-0.004 c0.039-0.042,0.075-0.085,0.116-0.125c0.04-0.04,0.082-0.079,0.126-0.116c0.016-0.013,0.039-0.038,0.059-0.049 c-0.022,0.012-0.031,0.017-0.037,0.02c0.015-0.008,0.045-0.026,0.058-0.034c0.205-0.147,0.427-0.269,0.652-0.384 c0.257-0.131,0.511-0.248,0.734-0.436c0.245-0.207,0.413-0.543,0.394-0.867C23.927,30.084,23.699,29.772,23.36,29.629z"/><path fill="#010101" d="M24.248,42.932c1.478,0.985,3.301,1.609,5.089,1.345c1.973-0.291,3.51-1.786,4.288-3.567 c0.255-0.584-0.606-1.094-0.863-0.505c-0.677,1.55-1.95,2.896-3.699,3.107c-1.526,0.184-3.059-0.411-4.31-1.244 C24.215,41.71,23.714,42.576,24.248,42.932L24.248,42.932z"/><path fill="#010101" d="M29.006,41.766c0.426-0.059,0.835-0.134,1.229-0.314c0.349-0.16,0.679-0.442,0.858-0.784 c0.185-0.352,0.239-0.777,0.093-1.154c-0.171-0.442-0.524-0.735-0.997-0.809c-0.539-0.084-1.047-0.013-1.544,0.207 c-0.24,0.106-0.314,0.475-0.179,0.684c0.16,0.249,0.427,0.293,0.684,0.179c-0.002,0.001-0.088,0.034-0.035,0.015 c0.017-0.006,0.034-0.013,0.051-0.02c0.04-0.015,0.08-0.028,0.121-0.04c0.076-0.023,0.153-0.039,0.231-0.054 c0.014-0.003,0.075-0.009,0.006-0.002c-0.074,0.007,0.006,0,0.024-0.002c0.036-0.003,0.073-0.006,0.109-0.007 c0.085-0.004,0.17-0.002,0.255,0.005c0.01,0.001,0.045,0.01,0.054,0.005c-0.002,0.001-0.099-0.016-0.043-0.006 c0.037,0.007,0.074,0.013,0.111,0.021c0.016,0.004,0.127,0.023,0.129,0.037c0.002,0.008-0.076-0.044-0.036-0.014 c0.013,0.01,0.032,0.019,0.047,0.027c0.01,0.006,0.023,0.02,0.034,0.023c-0.005-0.001-0.076-0.071-0.049-0.036 c0.014,0.019,0.039,0.042,0.057,0.057c0.045,0.039-0.058-0.09-0.028-0.038c0.007,0.012,0.015,0.022,0.022,0.034 c0.017,0.027,0.029,0.057,0.045,0.084c0.025,0.041-0.024-0.055-0.024-0.056c0,0.011,0.011,0.028,0.013,0.039 c0.008,0.031,0.016,0.062,0.025,0.093c0.023,0.083-0.005-0.11-0.002-0.023c0.001,0.032,0.003,0.065,0.003,0.097 c0,0.018-0.004,0.037-0.003,0.055c0.002,0.049,0.009-0.064,0.009-0.064c-0.011,0.022-0.011,0.057-0.018,0.081 c-0.007,0.026-0.026,0.059-0.028,0.086c0-0.001,0.045-0.094,0.02-0.048c-0.012,0.023-0.023,0.046-0.035,0.069 c-0.015,0.027-0.033,0.053-0.049,0.079c-0.047,0.076,0.063-0.069,0.003-0.002c-0.049,0.055-0.1,0.106-0.154,0.155 c-0.067,0.061,0.077-0.052,0.002,0c-0.026,0.018-0.052,0.036-0.079,0.053c-0.062,0.04-0.128,0.073-0.194,0.106 c-0.011,0.005-0.061,0.026-0.003,0.003c0.071-0.029-0.041,0.015-0.045,0.016c-0.041,0.015-0.083,0.029-0.124,0.041 c-0.09,0.027-0.181,0.05-0.273,0.069c-0.185,0.039-0.372,0.065-0.558,0.09c-0.115,0.016-0.243,0.135-0.299,0.23 c-0.063,0.107-0.089,0.265-0.05,0.385c0.039,0.121,0.114,0.238,0.23,0.299C28.748,41.783,28.864,41.786,29.006,41.766 L29.006,41.766z"/><path fill="#010101" d="M25,34c-1.654,0-3,1.346-3,3s1.346,3,3,3s3-1.346,3-3S26.654,34,25,34z M25,39 c-1.103,0-2-0.897-2-2c0-0.326,0.086-0.629,0.224-0.901c-0.025,0.252,0.076,0.518,0.272,0.676c0.119,0.096,0.247,0.179,0.4,0.209 c0.072,0.014,0.15,0.029,0.224,0.025c0.077-0.004,0.16-0.012,0.233-0.039c0.098-0.036,0.166-0.072,0.247-0.134 c0.086-0.066,0.135-0.122,0.201-0.213s0.113-0.203,0.135-0.313c0.033-0.168,0.032-0.31,0.001-0.478 c-0.007-0.038-0.017-0.074-0.03-0.11c-0.028-0.074-0.058-0.154-0.102-0.221c-0.112-0.171-0.264-0.291-0.43-0.391 C24.573,35.044,24.78,35,25,35c1.103,0,2,0.897,2,2S26.103,39,25,39z"/><path fill="#010101" d="M32.761,36.696c0.045-1.907,0.089-3.815,0.128-5.722c0.031-1.49,0.21-3.091-0.042-4.564 c-0.074-0.435-0.244-0.819-0.473-1.159c0.008-0.016,0.019-0.028,0.026-0.045c0.495-1.224,0.208-2.656-0.627-3.656 c-0.066-0.08-0.166-0.116-0.27-0.131c0.317-1.359,0.196-2.801-0.41-4.08c-0.65-1.372-1.836-2.36-3.044-3.228 C26.501,13,24.305,11.918,23.804,9.93c-0.238-0.944-0.063-2.149,0.704-2.818c0.867-0.757,2.154-0.885,3.214-0.547 c0.331,0.105,0.609-0.174,0.633-0.482c0.135-1.762-1.609-3.061-2.985-3.814C23.825,1.423,22,1.013,20.261,1.426 c-3.219,0.764-5.13,3.924-5.452,7.035c-0.194,1.872-0.045,3.742,0.068,5.613c0.126,2.084-0.313,4.182-1.283,6.032 c-0.96,1.832-2.115,3.526-2.659,5.549c-0.474,1.763-0.488,3.661,0.356,5.316c0.965,1.893,2.821,3.12,4.463,4.37 c0.464,0.353,0.928,0.71,1.387,1.071c-0.41,0.094-0.802,0.26-1.124,0.527c-0.737,0.609-1.026,1.735-0.7,2.628 c0.341,0.936,1.232,1.761,2.091,2.231c0.767,0.42,1.624,0.554,2.49,0.532c0.498-0.013,1.068-0.081,1.578-0.263 c0,0.117-0.007,0.239,0,0.351c0.061,0.978,0.411,1.902,1.005,2.681c1.111,1.455,2.98,2.141,4.763,2.225 c2.032,0.095,4.121-0.564,5.627-1.943c1.405-1.287,2.732-3.245,2.861-5.192C35.848,38.436,34.559,36.542,32.761,36.696z M31.134,22.551c0.019-0.043,0.032-0.088,0.05-0.132c0.02,0.029,0.04,0.058,0.059,0.088c0.072,0.116,0.135,0.237,0.191,0.361 c0.002,0.004,0.001,0.002,0.002,0.005c0.001,0.004,0,0.002,0.003,0.009c0.011,0.03,0.023,0.06,0.034,0.09 c0.022,0.06,0.041,0.121,0.059,0.183c0.038,0.131,0.067,0.264,0.089,0.399c0.001,0.007,0.001,0.008,0.002,0.014 c0.003,0.031,0.006,0.062,0.009,0.093c0.005,0.064,0.009,0.128,0.01,0.192c0.003,0.129-0.004,0.256-0.015,0.384 c-0.001,0.015-0.002,0.023-0.003,0.03c-0.004,0.025-0.008,0.05-0.012,0.075c-0.006,0.035-0.015,0.069-0.023,0.103 c-0.365-0.264-0.783-0.463-1.232-0.584C30.653,23.457,30.924,23.029,31.134,22.551z M13.52,32.26 c-1.332-1.309-2.041-2.901-1.899-4.786c0.138-1.84,0.95-3.543,1.844-5.126c0.924-1.638,1.807-3.2,2.183-5.068 c0.339-1.687,0.191-3.325,0.109-5.026c-0.149-3.126-0.068-6.49,2.501-8.693c1.385-1.188,3.19-1.561,4.948-1.097 c0.941,0.248,1.818,0.695,2.604,1.265c0.602,0.436,1.248,0.998,1.467,1.715c-1.527-0.218-3.261,0.312-4.049,1.692 c-0.889,1.557-0.577,3.528,0.551,4.876c2.186,2.61,6.533,3.574,6.885,7.485c0.354,3.926-3.356,6.534-6.934,6.557 c-0.888,0.006-1.74-0.138-2.596-0.364c-0.916-0.242-1.915-0.523-2.855-0.235c-1.866,0.572-2.327,3.058-1.913,4.732 c0.112,0.452,0.336,0.903,0.508,1.333c0.321,0.803,0.657,1.604,1.052,2.373c0.67,1.307,1.681,2.417,2.217,3.749 c-0.811-0.746-1.663-1.447-2.531-2.125C16.244,34.45,14.76,33.48,13.52,32.26z M30.156,45.875 c-1.847,0.647-3.993,0.659-5.715-0.358c-0.74-0.437-1.333-1.089-1.674-1.881c-0.359-0.831-0.588-2.403,0.212-3.053 c0.5-0.406-0.212-1.11-0.707-0.707c-0.291,0.236-0.467,0.565-0.592,0.918c0,0.001-0.001,0.001-0.001,0.001 c-0.451,0.519-1.386,0.543-2.024,0.535c-0.847-0.009-1.617-0.224-2.292-0.758c-0.701-0.554-1.459-1.402-1.07-2.35 c0.32-0.778,1.26-1.025,2.028-0.858c0.285,0.239,0.562,0.488,0.839,0.736c-0.136-0.002-0.273-0.009-0.409,0.002 c-0.359,0.027-0.751,0.079-1.056,0.287c-0.324,0.22-0.548,0.562-0.523,0.967c0.025,0.397,0.265,0.805,0.682,0.886 c0.256,0.05,0.552-0.072,0.615-0.349c0.052-0.23-0.063-0.508-0.298-0.591c0-0.002,0-0.003,0-0.005 c0.002-0.005,0.003-0.01,0.004-0.016c0.012-0.012,0.024-0.023,0.036-0.036c0.022-0.014,0.044-0.028,0.067-0.04 c0.004-0.002,0.008-0.004,0.013-0.006c0.039-0.005,0.119-0.041,0.144-0.048c0.056-0.015,0.113-0.025,0.171-0.035 c0.028-0.003,0.056-0.006,0.084-0.008c0.075-0.007,0.15-0.012,0.225-0.015c0.15-0.006,0.301-0.005,0.451,0.004 c0.082,0.005,0.164,0.012,0.245,0.021c0.029,0.003,0.152,0.007,0.03,0.003c0.04,0.001,0.082,0.013,0.122,0.02 c0.136,0.023,0.262,0.022,0.385-0.05c0.009-0.005,0.016-0.016,0.026-0.023c0.158,0.158,0.323,0.309,0.476,0.473 c0.002,0.002,0.004,0.002,0.005,0.004c0.029,0.028,0.062,0.048,0.096,0.068c0.088,0.057,0.179,0.087,0.268,0.079 c0.252,0.004,0.499-0.155,0.484-0.481c-0.036-0.744-0.229-1.493-0.502-2.184c-0.345-0.872-0.939-1.601-1.452-2.379 c-0.812-1.232-1.395-2.562-1.924-3.936c-0.472-1.226-0.725-3.231,0.518-4.094c0.909-0.631,2.167-0.095,3.122,0.14 c0.725,0.178,1.474,0.28,2.221,0.295c2.282,0.044,4.551-0.77,6.138-2.338c0.023,0.005,0.041,0.018,0.067,0.02 c0.639,0.063,1.389,0.442,1.809,0.93c0.418,0.485,0.463,1.232,0.455,1.913c-0.176,0.028-0.349,0.066-0.517,0.135 c-0.264,0.109-0.49,0.244-0.711,0.426c-0.079,0.065-0.153,0.135-0.221,0.211c-0.103,0.116-0.205,0.237-0.266,0.381 c-0.115,0.272-0.023,0.603,0.238,0.756c0.155,0.091,0.31,0.099,0.483,0.122c-0.044-0.006-0.089-0.012-0.133-0.018 c0.179,0.026,0.35,0.078,0.519,0.143c0.163,0.075,0.321,0.161,0.464,0.27c-0.008-0.007-0.017-0.013-0.025-0.02 c0.039,0.031,0.079,0.053,0.12,0.075c-0.013,0.635-0.023,1.27-0.037,1.905c-0.016,0.774-0.035,1.548-0.053,2.322 C31.567,33.511,31.086,33,30.5,33c-0.855,0-1.5,1.075-1.5,2.5s0.645,2.5,1.5,2.5c0.539,0,0.993-0.428,1.256-1.099 c-0.003,0.137-0.006,0.275-0.009,0.412c-0.007,0.309,0.328,0.588,0.633,0.482c0.945-0.329,1.858,0.248,2.194,1.153 c0.372,1.001,0.072,2.095-0.389,3.011C33.329,43.658,31.989,45.233,30.156,45.875z M30.422,35.486 c0.011-0.022,0.044-0.1,0.049-0.117c0.006-0.022,0.01-0.07,0.01-0.073c0.008-0.06,0.009-0.046,0.009-0.073 c0-0.021-0.013-0.117-0.019-0.136c-0.008-0.022-0.016-0.043-0.026-0.063c-0.008-0.022-0.017-0.043-0.027-0.063 c-0.026-0.034-0.052-0.067-0.078-0.101c-0.024-0.018-0.048-0.037-0.072-0.056c-0.024-0.028-0.043-0.06-0.074-0.081 c-0.023-0.021-0.053-0.028-0.08-0.042C30.235,34.25,30.419,34,30.5,34c0.124,0,0.5,0.532,0.5,1.5S30.624,37,30.5,37 c-0.102,0-0.362-0.375-0.456-1.039c0.033-0.011,0.068-0.009,0.099-0.027c0.034-0.026,0.067-0.052,0.101-0.078 c0.062-0.062,0.105-0.136,0.129-0.221C30.389,35.586,30.405,35.536,30.422,35.486z M30.375,35.202c0.001-0.007,0-0.013,0.001-0.02 c0,0.002,0.001,0.004,0.001,0.007C30.376,35.193,30.376,35.198,30.375,35.202z"/><g><path fill="#010101" d="M18.67,22.476c0.825-1.913,1.181-3.992,0.98-6.07c-0.026-0.269-0.211-0.5-0.5-0.5 c-0.25,0-0.526,0.23-0.5,0.5c0.183,1.891-0.089,3.816-0.844,5.565c-0.107,0.248-0.073,0.536,0.179,0.684 C18.197,22.779,18.562,22.726,18.67,22.476L18.67,22.476z"/></g><g><path fill="#010101" d="M22.016,22.051c0.452-0.734,0.591-1.615,0.427-2.457c-0.05-0.257-0.372-0.428-0.615-0.349 c-0.274,0.089-0.403,0.34-0.349,0.615c0.006,0.03,0.035,0.108,0.024,0.137c-0.01-0.076-0.011-0.085-0.004-0.03 c0.003,0.023,0.005,0.046,0.007,0.069c0.007,0.081,0.01,0.162,0.011,0.243c0,0.081-0.003,0.162-0.01,0.243 c-0.002,0.023-0.004,0.046-0.007,0.069c-0.007,0.056-0.005,0.046,0.005-0.029c0.007,0.032-0.014,0.088-0.02,0.12 c-0.031,0.165-0.076,0.328-0.135,0.485c-0.008,0.022-0.017,0.043-0.025,0.065c0.028-0.066,0.032-0.074,0.01-0.023 c-0.015,0.031-0.029,0.063-0.044,0.094c-0.041,0.083-0.087,0.164-0.135,0.243c-0.137,0.223-0.056,0.56,0.179,0.684 C21.576,22.359,21.869,22.289,22.016,22.051L22.016,22.051z"/></g></svg>